# xmcd
#
# Track frame offsets: 
#        150
#        15329
#        33384
#        51731
#        71038
#        88628
#        106744
#        126171
#        143862
#        164391
#        178756
#        196795
#        214213
#        232581
#        252119
#        272287
#
# Disc length: 3878 seconds
#
# Revision: 0
# Processed by: cddbd v1.5.2PL0 Copyright (c) Steve Scherf et al.
# Submitted via: ExactAudioCopyFreeDBPlugin 1.0
#
DISCID=d60f2410
DTITLE=Madonna - The Greatest Hits of Madonna
DYEAR=1900
DGENRE=Rock
TTITLE0=Angel
TTITLE1=Bordeline
TTITLE2=Crazy for You
TTITLE3=Express Yourself
TTITLE4=Gambler
TTITLE5=Holiday
TTITLE6=Into the Groove
TTITLE7=La Isla Bonita
TTITLE8=Like a Prayer
TTITLE9=Like a Virgin
TTITLE10=Material Girl
TTITLE11=Papa Don't Preach
TTITLE12=True Blue
TTITLE13=Vogue
TTITLE14=Rain
TTITLE15=I'll Remember
EXTD=
EXTT0=
EXTT1=
EXTT2=
EXTT3=
EXTT4=
EXTT5=
EXTT6=
EXTT7=
EXTT8=
EXTT9=
EXTT10=
EXTT11=
EXTT12=
EXTT13=
EXTT14=
EXTT15=
PLAYORDER=
